<?xml version="1.0" encoding="UTF-8"?>
<!-- Created with Inkscape (http://www.inkscape.org/) -->
<svg width="120" height="120" version="1.1" viewBox="0 0 120 120" xml:space="preserve" xmlns="http://www.w3.org/2000/svg"><g><circle cx="60" cy="60" r="54.737" fill="#132e5b"/><circle cx="60" cy="60" r="51.498" fill="#f9e27d" stroke-width=".94083"/><g transform="matrix(1.3924 0 0 1.3924 12.827 12.445)" fill="#132e5b"><path d="m18.559 38.401v2.0741c0.73776 0.0298 1.0357-0.52538 1.031-1.1869-0.0045-0.63551-0.54217-0.89816-1.031-0.88718zm-1.9342-1.1247h2.3285c1.0328 0.01179 1.9523 0.79173 1.9523 2.0743-3.8e-5 1.4482-0.95769 1.9234-2.359 2.0336v1.7286h0.48806v0.81344h-2.42v-0.82179h0.49383v-4.974h-0.48366z"/><path transform="scale(.26458)" d="m90.285 141.01v2.9902h1.6094v20.934c0 1.2692-1.1526 2.9906-2.5381 3.8063l1.5043 2.2384c2.8426-0.61011 6.1303-4.4804 6.1081-7.4947v-19.484h1.6094v-2.9902z" stop-color="#000000" style="font-variation-settings:normal"/><path transform="scale(.26458)" d="m109.57 141.15v2.4922h1.9023l0.0898 0.0254v19.57l-0.0898 0.0254h-1.9023v2.4922h16.811v-6.3887h-2.6289l-0.49805 2.4922h-6.8867l-0.0469 0.0137v-6.7656h4.7129v1.1543h2.9902v-5.3008h-2.9902v1.1562h-4.7129v-7.084l0.0469 0.0137h5.8906l0.49804 1.8594h2.627v-5.7559z" stop-color="#000000" style="font-variation-settings:normal"/><path d="m41.372 39.286h0.66096v-1.6111h-0.51638c-0.54268-0.34215-1.318-0.40541-1.9519-0.40277-1.9839 0.0083-3.4067 1.4872-3.3771 3.3255 0.02405 1.4947 1.2754 3.4016 3.6043 3.3874 1.2822-0.0078 2.107-0.30794 2.5612-0.68162v-1.6524h-0.68162v0.32015c-0.16383 0.47735-0.69837 0.94325-1.6421 0.96046-1.0644 0.01942-2.427-0.72538-2.427-2.334 0-1.4853 1.0693-2.1477 2.1275-2.1791 1.0198-0.03027 1.3519 0.41378 1.6421 0.86752z" stop-color="#000000" style="font-variation-settings:normal"/><path d="m50.187 42.88v-0.40278h0.76941v1.4149h-5.9384v-0.62998l3.6771-4.7007 0.0098-0.1533h-2.9175v0.32016h-0.76941v-1.4459h5.9384v0.58867l-3.7639 4.8275v0.18138z" stop-color="#000000" style="font-variation-settings:normal"/><path d="m23.058 53.519c-0.16553-1.7594-2.2565-2.0364-3.6931-1.7551 0.39518 1.7889 2.4449 2.5868 3.6931 1.7551z" stop-color="#000000" style="font-variation-settings:normal"/><path d="m27.039 54.959c0.50469-1.8768-1.0167-3.278-2.465-3.7259-0.42839 1.6276 0.43445 2.5912 0.91222 3.0093-1.1795 0.16423-2.4038 1.3139-2.5232 2.1649 1.3437 0.50763 3.643-0.35833 4.076-1.4482z" stop-color="#000000" style="font-variation-settings:normal"/><path d="m31.309 56.257c0.28368-1.7021-0.86596-3.0607-2.6576-3.434-0.26089 1.0919 0.30545 2.7143 1.2311 3.0278-0.94061 0.16423-2.2912 0.94364-2.8137 2.1082 1.9111 0.50763 3.867-0.22395 4.2402-1.7021z" stop-color="#000000" style="font-variation-settings:normal"/><circle cx="33.981" cy="56.362" r="1.3139" stop-color="#000000" style="font-variation-settings:normal"/><path d="m44.848 53.519c0.16553-1.7594 2.2565-2.0364 3.6931-1.7551-0.39518 1.7889-2.4449 2.5868-3.6931 1.7551z" stop-color="#000000" style="font-variation-settings:normal"/><path d="m40.867 54.959c-0.50469-1.8768 1.0167-3.278 2.465-3.7259 0.42839 1.6276-0.43445 2.5912-0.91222 3.0093 1.1795 0.16423 2.4038 1.3139 2.5232 2.1649-1.3437 0.50763-3.643-0.35833-4.076-1.4482z" stop-color="#000000" style="font-variation-settings:normal"/><path d="m36.597 56.257c-0.28368-1.7021 0.86596-3.0607 2.6576-3.434 0.26089 1.0919-0.30545 2.7143-1.2311 3.0278 0.94061 0.16423 2.2912 0.94364 2.8137 2.1082-1.9111 0.50763-3.867-0.22395-4.2402-1.7021z" stop-color="#000000" style="font-variation-settings:normal"/><path d="m15.512 23.194c7e-3 -0.22986-0.16693-0.4083-0.4264-0.4052h-1.4887c-0.32138 4.45e-4 -0.38415 0.19054-0.42333 0.39794-0.24119 1.0494-1.181 1.8319-2.3035 1.8319-1.1226 0-2.0623-0.78258-2.3035-1.8319-0.039182-0.20739-0.10195-0.39749-0.42333-0.39794h-1.4887c-0.25947-0.0031-0.43341 0.17534-0.4264 0.4052 0.26719 2.3268 2.2435 4.1338 4.6419 4.1338 2.3984 0 4.3747-1.807 4.6419-4.1338z"/><path d="m25.957 28.692h-1.4887c-0.25947 0.0031-0.43341-0.17534-0.4264-0.4052v-11.607c-7e-3 -0.22986 0.16693-0.4083 0.4264-0.4052h1.4887c0.32138 4.45e-4 0.38415 0.19054 0.42333 0.39794v11.621c-0.03918 0.20739-0.10195 0.39749-0.42333 0.39794z"/><path d="m52.247 23.194c-7e-3 -0.22986 0.16693-0.4083 0.4264-0.4052h1.4887c0.32138 4.45e-4 0.38415 0.19054 0.42333 0.39794 0.24119 1.0494 1.181 1.8319 2.3035 1.8319s2.0623-0.78258 2.3035-1.8319c0.03918-0.20739 0.10195-0.39749 0.42333-0.39794h1.4887c0.25947-0.0031 0.43341 0.17534 0.4264 0.4052-0.26718 2.3268-2.2435 4.1338-4.6419 4.1338s-4.3747-1.807-4.6419-4.1338z"/><path d="m41.802 28.692h1.4887c0.25947 0.0031 0.43341-0.17534 0.4264-0.4052v-11.607c7e-3 -0.22986-0.16693-0.4083-0.4264-0.4052h-1.4887c-0.32138 4.45e-4 -0.38415 0.19054-0.42333 0.39794v11.621c0.03918 0.20739 0.10195 0.39749 0.42333 0.39794z"/><path d="m39.598 34.077h10.184c0.36032 0 0.57575-0.10928 0.58195-0.32331v-0.67894c-0.01511-0.88927-0.79004-1.4041-1.4872-1.4225h-13.191c-0.64811 0.01602-0.7938-0.33678-0.7842-0.83584v-15.292c7e-3 -0.22986-0.16693-0.4083-0.4264-0.4052h-1.1932c-0.25947-0.0031-0.4334 0.17534-0.4264 0.4052v15.292c0.0096 0.49906-0.13609 0.85187-0.7842 0.83584h-13.191c-0.69717 0.01846-1.4721 0.53328-1.4872 1.4225v0.67894c0.0062 0.21403 0.22163 0.32331 0.58195 0.32331h10.184z"/><path d="m53.581 50.91c0.63836-0.74027 0.19762-1.3138-0.35265-1.2889h-38.698c-0.55027-0.02489-0.991 0.5486-0.35265 1.2889 2.6891 3.5162 8.9742 8.8618 19.702 10.673 10.727-1.8116 17.013-7.1572 19.702-10.673zm-38.053 4.9374c-3.0895-2.8774-5.4213-6.5873-5.4213-10.361v-14.064c-7e-3 -0.22986 0.16693-0.4083 0.4264-0.4052h1.4887c0.32138 4.45e-4 0.38415 0.19054 0.42333 0.39794v14.763c0.0522 0.99361 0.48943 0.94221 0.90647 0.94551h41.055c0.41704-0.0033 0.85427 0.0481 0.90647-0.94551v-14.763c0.03918-0.20739 0.10195-0.39749 0.42333-0.39794h1.4887c0.25947-0.0031 0.4334 0.17534 0.4264 0.4052v14.064c0 3.7736-2.3318 7.4835-5.4213 10.361-4.384 4.083-12.03 7.4753-18.351 8.1527-6.321-0.67734-13.967-4.0697-18.351-8.1527z" stop-color="#000000" style="font-variation-settings:normal"/><path d="m31.841 10.427c-0.17824 0-0.31828-0.11458-0.26527-0.38135 0.24119-1.0494 1.181-1.8319 2.3035-1.8319s2.0623 0.78258 2.3035 1.8319c0.05301 0.26677-0.08703 0.38135-0.26527 0.38135zm16.718 2.2993c0.65557 0.04213 0.8527 0.47634 0.93656 1.0192 0.53045 3.4336 4.5601 5.4694 6.611 5.4816 0.25172 0.0015 0.64636-0.11204 0.6611-0.46828v-1.212c-0.0084-0.32324-0.1452-0.58904-0.62547-0.7096-3.7428-0.93953-4.5571-3.053-4.6504-5.3861-0.03005-0.75211-0.63302-1.0077-1.1974-1.0111h-11.046c-0.44826 0.0082-0.688-0.08416-0.72731-0.40158-0.28785-2.3243-2.2435-4.1338-4.6419-4.1338s-4.3541 1.8094-4.6419 4.1338c-0.03931 0.31742-0.27906 0.4098-0.72731 0.40158h-11.046c-0.56442 0.0034-1.1674 0.25899-1.1974 1.0111-0.09323 2.3332-0.90762 4.4466-4.6504 5.3861-0.48027 0.12056-0.6171 0.38635-0.62547 0.7096v1.212c0.01474 0.35624 0.40938 0.46978 0.6611 0.46828 2.0509-0.01225 6.0806-2.048 6.611-5.4816 0.08386-0.54286 0.28099-0.97707 0.93656-1.0192z"/></g></g></svg>
