<?xml version="1.0" encoding="UTF-8" standalone="no"?>
<!-- Created with Inkscape (http://www.inkscape.org/) -->

<svg
   width="120"
   height="120"
   version="1.1"
   viewBox="0 0 120 120"
   xml:space="preserve"
   id="svg20"
   xmlns="http://www.w3.org/2000/svg"
   xmlns:svg="http://www.w3.org/2000/svg"><defs
     id="defs20" /><g
     id="layer1"
     transform="matrix(9.9779833,0,0,9.9779833,-3.3601915,-3.3601959)"><path
       id="path5"
       d="M 7.8690428,8.9075398 6.4895585,6.4906885 10.659933,8.9075398 Z M 3.3848016,6.4016991 H 6.158177 L 1.9903448,8.8171372 Z M 4.8309574,3.7924603 6.2104416,6.2093108 2.0400659,3.7924603 Z M 9.3151985,6.2983011 H 6.5421051 L 10.709656,3.8828621 Z M 6.2983015,6.5446474 V 11.344732 L 4.9207944,8.9586741 Z M 6.4016987,6.1556347 V 1.3552682 L 7.7792049,3.7416089 Z M 11.208845,3.5345309 H 7.9577502 L 6.3499997,0.74957239 4.74225,3.5345309 H 1.4911545 L 3.1167022,6.3500001 1.4911545,9.1654693 H 4.74225 L 6.3499997,11.950428 7.9577502,9.1654693 H 11.208845 L 9.5832979,6.3500001 Z"
       style="fill:#ffffff;fill-opacity:1;fill-rule:nonzero;stroke:none;stroke-width:0.0353135" /></g></svg>
